{
  "accessors": [
    {
      "bufferView": 2,
      "componentType": 5126,
      "count": 55343,
      "max": [
        10.251631736755371,
        11.140231132507324,
        22.44281005859375
      ],
      "min": [
        -12.52863883972168,
        -11.620095252990723,
        -0.63558769226074219
      ],
      "type": "VEC3"
    },
    {
      "bufferView": 2,
      "byteOffset": 664116,
      "componentType": 5126,
      "count": 55343,
      "max": [
        0.99998217821121216,
        0.99997740983963013,
        0.99997687339782715
      ],
      "min": [
        -0.99995076656341553,
        -0.99999701976776123,
        -0.99990963935852051
      ],
      "type": "VEC3"
    },
    {
      "bufferView": 3,
      "componentType": 5126,
      "count": 55343,
      "max": [
        0.99999076128005981,
        0.99999850988388062,
        0.9999346137046814,
        1
      ],
      "min": [
        -0.99998736381530762,
        -0.99992662668228149,
        -0.99994689226150513,
        -1
      ],
      "type": "VEC4"
    },
    {
      "bufferView": 3,
      "byteOffset": 885488,
      "componentType": 5126,
      "count": 55343,
      "max": [
        1,
        1,
        1,
        1
      ],
      "min": [
        1,
        1,
        1,
        0
      ],
      "type": "VEC4"
    },
    {
      "bufferView": 1,
      "componentType": 5126,
      "count": 55343,
      "max": [
        0.99884635210037231,
        0.99051189422607422
      ],
      "min": [
        0.0010037337196990848,
        0.0014442106476053596
      ],
      "type": "VEC2"
    },
    {
      "bufferView": 0,
      "componentType": 5125,
      "count": 300000,
      "max": [
        55342
      ],
      "min": [
        0
      ],
      "type": "SCALAR"
    }
  ],
  "asset": {
    "extras": {
      "author": "3dhdscan (https://sketchfab.com/3dhdscan)",
      "license": "CC-BY-4.0 (http://creativecommons.org/licenses/by/4.0/)",
      "source": "https://sketchfab.com/models/a29001d7c6324c98b4779af57fae7957",
      "title": "MDB3D - Integer Power - fractal photogrammetry"
    },
    "generator": "Sketchfab-3.19.3",
    "version": "2.0"
  },
  "bufferViews": [
    {
      "buffer": 0,
      "byteLength": 1200000,
      "byteOffset": 0,
      "name": "floatBufferViews",
      "target": 34963
    },
    {
      "buffer": 0,
      "byteLength": 442744,
      "byteOffset": 1200000,
      "byteStride": 8,
      "name": "floatBufferViews",
      "target": 34962
    },
    {
      "buffer": 0,
      "byteLength": 1328232,
      "byteOffset": 1642744,
      "byteStride": 12,
      "name": "floatBufferViews",
      "target": 34962
    },
    {
      "buffer": 0,
      "byteLength": 1770976,
      "byteOffset": 2970976,
      "byteStride": 16,
      "name": "floatBufferViews",
      "target": 34962
    }
  ],
  "buffers": [
    {
      "byteLength": 4741952,
      "uri": "scene.bin"
    }
  ],
  "images": [
    {
      "uri": "textures/BPine03_baseColor.jpeg"
    },
    {
      "uri": "textures/BPine03_normal.jpeg"
    },
    {
      "uri": "textures/BPine03_metallicRoughness.png"
    }
  ],
  "materials": [
    {
      "doubleSided": false,
      "name": "BPine03",
      "normalTexture": {
        "index": 1,
        "scale": 1,
        "texCoord": 0
      },
      "occlusionTexture": {
        "index": 2,
        "strength": 1,
        "texCoord": 0
      },
      "pbrMetallicRoughness": {
        "baseColorFactor": [
          1,
          1,
          1,
          1
        ],
        "baseColorTexture": {
          "index": 0,
          "texCoord": 0
        },
        "metallicFactor": 0,
        "roughnessFactor": 0.41901676830000001
      }
    }
  ],
  "meshes": [
    {
      "name": "BPine03_BPine03_0",
      "primitives": [
        {
          "attributes": {
            "COLOR_0": 3,
            "NORMAL": 1,
            "POSITION": 0,
            "TANGENT": 2,
            "TEXCOORD_0": 4
          },
          "indices": 5,
          "material": 0,
          "mode": 4
        }
      ]
    }
  ],
  "nodes": [
    {
      "children": [
        1
      ],
      "name": "RootNode (gltf orientation matrix)",
      "rotation": [
        -0.70710678118654746,
        -0,
        -0,
        0.70710678118654757
      ]
    },
    {
      "children": [
        2
      ],
      "name": "RootNode (model correction matrix)"
    },
    {
      "children": [
        3
      ],
      "matrix": [
        1,
        0,
        0,
        0,
        0,
        0,
        1,
        0,
        0,
        -1,
        0,
        0,
        0,
        0,
        0,
        1
      ],
      "name": "BPine03.FBX"
    },
    {
      "children": [
        4
      ],
      "name": "RootNode"
    },
    {
      "children": [
        5
      ],
      "matrix": [
        4.3711388619804836e-06,
        -5.5511151231257827e-15,
        99.999999999999915,
        0,
        99.999999999999915,
        1.1102230246251565e-14,
        -4.3711388675315987e-06,
        0,
        -1.6653345369377348e-14,
        100,
        0,
        0,
        0,
        0,
        0,
        1
      ],
      "name": "BPine03"
    },
    {
      "mesh": 0,
      "name": "BPine03_BPine03_0"
    }
  ],
  "samplers": [
    {
      "magFilter": 9729,
      "minFilter": 9987,
      "wrapS": 33071,
      "wrapT": 33071
    },
    {
      "magFilter": 9729,
      "minFilter": 9987,
      "wrapS": 10497,
      "wrapT": 10497
    }
  ],
  "scene": 0,
  "scenes": [
    {
      "name": "OSG_Scene",
      "nodes": [
        0
      ]
    }
  ],
  "textures": [
    {
      "sampler": 0,
      "source": 0
    },
    {
      "sampler": 1,
      "source": 1
    },
    {
      "sampler": 1,
      "source": 2
    }
  ]
}

